HIERARCHY
ROOT Hips
{
	OFFSET 0.00000 0.00000 0.00000
	CHANNELS 6 Xposition Yposition Zposition Zrotation Yrotation Xrotation 
	JOINT LHipJoint
	{
		OFFSET 0 0 0
		CHANNELS 3 Zrotation Yrotation Xrotation
		JOINT LeftHip
		{
			OFFSET 1.36306 -1.79463 0.83929
			CHANNELS 3 Zrotation Yrotation Xrotation
			JOINT LeftKnee
			{
				OFFSET 2.44811 -6.72613 0.00000
				CHANNELS 3 Zrotation Yrotation Xrotation
				JOINT LeftAnkle
				{
					OFFSET 2.56220 -7.03959 0.00000
					CHANNELS 3 Zrotation Yrotation Xrotation
					JOINT LeftToe
					{
						OFFSET 0.15764 -0.43311 2.32255
						CHANNELS 3 Zrotation Yrotation Xrotation
						End Site
						{
							OFFSET 0.00000 -0.00000 1.18966
						}
					}
				}
			}
		}
	}
	JOINT RHipJoint
	{
		OFFSET 0 0 0
		CHANNELS 3 Zrotation Yrotation Xrotation
		JOINT RightHip
		{
			OFFSET -1.30552 -1.79463 0.83929
			CHANNELS 3 Zrotation Yrotation Xrotation
			JOINT RightKnee
			{
				OFFSET -2.54253 -6.98555 0.00000
				CHANNELS 3 Zrotation Yrotation Xrotation
				JOINT RightAnkle
				{
					OFFSET -2.56826 -7.05623 0.00000
					CHANNELS 3 Zrotation Yrotation Xrotation
					JOINT RightToe
					{
						OFFSET -0.16473 -0.45259 2.36315
						CHANNELS 3 Zrotation Yrotation Xrotation
						End Site
						{
							OFFSET -0.00000 -0.00000 1.21082
						}
					}
				}
			}
		}
	}
	JOINT lowerback
	{
		OFFSET 0 0 0
		CHANNELS 3 Zrotation Yrotation Xrotation
		JOINT Chest
		{
			OFFSET 0.02827 2.03559 -0.19338
			CHANNELS 3 Zrotation Yrotation Xrotation
			JOINT Chest2
			{
				OFFSET 0.05672 2.04885 -0.04275
				CHANNELS 3 Zrotation Yrotation Xrotation
				JOINT lowerneck
				{
					OFFSET 0 0 0
					CHANNELS 3 Zrotation Yrotation Xrotation
					JOINT Neck
					{
						OFFSET -0.05417 1.74624 0.17202
						CHANNELS 3 Zrotation Yrotation Xrotation
						JOINT Head
						{
							OFFSET 0.10407 1.76136 -0.12397
							CHANNELS 3 Zrotation Yrotation Xrotation
							End Site
							{
								OFFSET 0.03720 1.77044 -0.06241
							}
						}
					}
				}
				JOINT LeftCollar
				{
					OFFSET 0 0 0
					CHANNELS 3 Zrotation Yrotation Xrotation
					JOINT LeftShoulder
					{
						OFFSET 3.36241 1.20089 -0.31121
CHANNELS 3 Zrotation Xrotation Yrotation
						JOINT LeftElbow
						{
OFFSET 0 -4.983000 -0.000000
CHANNELS 3 Zrotation Xrotation Yrotation
							JOINT LeftWrist
							{
OFFSET 0 -3.483560 -0.000000
CHANNELS 3 Zrotation Xrotation Yrotation
								JOINT lhand
								{
									OFFSET 0 0 0
CHANNELS 3 Zrotation Xrotation Yrotation
									JOINT LFingers
									{
OFFSET 0 -0.715260 -0.000000
CHANNELS 3 Zrotation Xrotation Yrotation
										End Site
										{
OFFSET 0 -0.576660 -0.000000
										}
									}
								}
								JOINT LThumb
								{
OFFSET 0 0.000000 0.000000
CHANNELS 3 Zrotation Xrotation Yrotation
									End Site
									{
OFFSET 0 -0.585470 0.585470
									}
								}
							}
						}
					}
				}
				JOINT RightCollar
				{
					OFFSET 0 0 0
					CHANNELS 3 Zrotation Yrotation Xrotation
					JOINT RightShoulder
					{
						OFFSET -3.13660 1.37405 -0.40465
CHANNELS 3 Zrotation Xrotation Yrotation
						JOINT RightElbow
						{
OFFSET 0 -5.241900 -0.000000
CHANNELS 3 Zrotation Xrotation Yrotation
							JOINT RightWrist
							{
OFFSET 0 -3.444170 -0.000000
CHANNELS 3 Zrotation Xrotation Yrotation
								JOINT rhand
								{
									OFFSET 0 0 0
CHANNELS 3 Zrotation Xrotation Yrotation
									JOINT RFingers
									{
OFFSET 0 -0.622530 -0.000000
CHANNELS 3 Zrotation Xrotation Yrotation
										End Site
										{
OFFSET 0 -0.501900 -0.000000
										}
									}
								}
								JOINT RThumb
								{
OFFSET 0 0.000000 0.000000
CHANNELS 3 Zrotation Xrotation Yrotation
									End Site
									{
OFFSET 0 -0.509560 0.509560
									}
								}
							}
						}
					}
				}
			}
		}
	}
}
MOTION
Frames: 7
Frame Time: 0.008333333333333333
-24.364838 17.555610 3.112802 -185.537426 -15.514473 540.837159 0.000000 0.000000 0.000000 -24.513638 8.839741 -2.566011 0.609642 4.996964 13.900095 -0.030282 -15.539958 -10.586921 0.013372 -0.745448 -2.048509 0.000000 0.000000 0.000000 10.997845 15.844270 -47.104005 -19.306752 -19.988178 87.972711 0.840361 21.480986 -7.503130 -0.022116 -0.958749 2.635306 -6.525430 -4.646734 15.160476 1.429445 -7.528150 3.495355 6.487742 -3.875607 -3.695547 -10.113033 -12.594854 -3.205645 14.127114 -17.723725 13.874890 4.660236 -8.044854 6.945035 0.000000 0.000000 0.000000 5.752140 1.221579 -14.362798 24.608916 -35.801524 8.059972 18.470631 -4.042471 8.541535 0.000000 0.000000 0.000000 -7.125000 0.000000 0.000000 -6.067331 21.003398 -3.508617 0.000000 0.000000 0.000000 -52.232946 -8.839822 -31.072840 -108.210806 -58.709046 -75.702656 -4.270251 -22.839242 5.766183 0.000000 0.000000 0.000000 7.125000 0.000000 0.000000 18.510111 35.228221 4.645684
-24.645715 17.337284 2.516931 -186.512427 -12.228318 541.358748 0.000000 0.000000 0.000000 -26.178463 11.017719 -3.511791 0.935846 6.161906 17.254992 0.780787 -13.757343 -17.272999 0.548628 -4.637030 -12.892211 0.000000 0.000000 0.000000 13.224588 12.186795 -48.480209 -14.673296 -19.303843 74.249271 0.405829 16.573669 -7.007363 -0.053579 -1.474167 4.054846 -7.358517 -4.838508 14.816530 1.223785 -7.870616 3.084611 6.765518 -4.005038 -3.811920 -10.584168 -12.277026 -0.769039 15.233925 -17.375377 12.621624 5.290398 -7.985550 6.225747 0.000000 0.000000 0.000000 6.109283 -2.883937 -18.865661 22.658570 -33.709773 6.949458 21.640981 -8.596644 19.595564 0.000000 0.000000 0.000000 -7.125000 0.000000 0.000000 -4.306811 9.070834 -3.585763 0.000000 0.000000 0.000000 -53.634485 -7.816758 -30.502079 -107.694945 -58.783111 -75.261648 -1.315981 -26.365856 5.986073 0.000000 0.000000 0.000000 7.125000 0.000000 0.000000 20.908640 35.264133 5.295581
-24.896175 17.246256 1.848500 -186.474932 -8.598850 541.284623 0.000000 0.000000 0.000000 -26.253817 12.630562 -1.322348 1.078863 6.602109 18.541807 1.051249 -13.413836 -19.299020 0.184304 -2.757230 -7.603953 0.000000 0.000000 0.000000 18.647088 6.934045 -45.507910 -9.455491 -17.089510 57.648644 -0.377246 1.701619 -11.209574 -0.346695 -3.397681 9.417017 -6.818663 -4.752793 13.352935 1.194273 -7.706514 4.428297 6.134349 -4.135217 -1.706821 -9.875526 -12.639732 -3.977675 15.494299 -17.878916 11.986692 4.997455 -8.106254 6.613788 0.000000 0.000000 0.000000 6.753484 -7.351915 -21.138977 27.982537 -39.100097 10.112658 13.797798 8.331039 6.266538 0.000000 0.000000 0.000000 -7.125000 0.000000 0.000000 -9.625502 23.479877 -4.903055 0.000000 0.000000 0.000000 -55.354990 -8.014936 -32.571099 -107.691828 -58.783590 -75.258998 -0.295801 -30.101561 5.341950 0.000000 0.000000 0.000000 7.125000 0.000000 0.000000 21.546199 34.605063 5.849633
-25.121127 17.147309 1.175436 -186.554426 -3.082052 542.030105 0.000000 0.000000 0.000000 -27.358190 13.833021 -0.560739 1.215511 6.993535 19.696113 1.383723 -12.049687 -21.439828 0.057723 -1.550374 -4.264679 0.000000 0.000000 0.000000 24.184553 2.521985 -42.749633 -6.111016 -14.534121 45.423865 -0.089385 -12.570918 -18.988587 -1.383128 -7.337823 20.765265 -6.098956 -4.615659 13.178486 0.999346 -7.343431 3.571011 5.538284 -3.841447 -2.687843 -9.611021 -12.202728 -3.127343 15.048787 -17.177913 10.602144 4.971282 -7.909474 5.871151 0.000000 0.000000 0.000000 6.158832 -8.354801 -23.839280 28.963686 -39.987815 10.737566 23.768325 -6.769242 16.060430 0.000000 0.000000 0.000000 -7.125000 0.000000 0.000000 -2.642518 12.531807 -2.008295 0.000000 0.000000 0.000000 -56.915710 -6.920377 -31.867086 -108.045164 -58.733119 -75.561083 4.461491 -34.925127 5.956300 0.000000 0.000000 0.000000 7.125000 0.000000 0.000000 25.390532 34.875531 6.888184
-25.329455 17.135760 0.429240 -186.361152 2.202806 542.877002 0.000000 0.000000 0.000000 -27.959837 15.630902 -1.162947 1.516684 7.773617 22.030338 1.136198 -11.527101 -19.514435 0.019900 -0.907695 -2.494813 0.000000 0.000000 0.000000 27.226326 -1.396371 -40.108783 -4.891232 -13.260162 40.350436 0.360708 -12.871792 -12.700441 -0.890054 -5.977019 16.728380 -5.189500 -5.551351 13.068100 1.391205 -7.663059 2.857340 5.500794 -3.633260 -3.371544 -10.178678 -11.547489 -3.996194 15.048658 -16.134788 9.144506 5.137496 -7.482140 5.481899 0.000000 0.000000 0.000000 5.684686 -8.811982 -24.334891 32.255546 -42.746521 12.915080 23.244105 -2.587219 13.231766 0.000000 0.000000 0.000000 -7.125000 0.000000 0.000000 -2.876942 15.602673 -1.926602 0.000000 0.000000 0.000000 -59.135558 -7.439602 -31.452471 -108.956993 -58.597614 -76.339951 6.286223 -39.431815 6.034518 0.000000 0.000000 0.000000 7.125000 0.000000 0.000000 26.799298 34.823115 7.388860
-25.496220 17.154776 -0.359939 -185.394725 8.733590 542.858212 0.000000 0.000000 0.000000 -26.227704 19.594841 -9.105756 4.150971 12.351356 36.997380 0.041317 -14.472580 -10.578068 0.004602 -0.429373 -1.179804 0.000000 0.000000 0.000000 29.047548 -1.839100 -34.819454 -4.318771 -12.572854 37.789925 -0.390507 -5.617679 -15.203396 -1.439964 -7.582963 21.456135 -3.911938 -5.476661 12.790172 1.583618 -7.291929 3.740284 4.862117 -3.474099 -2.475017 -8.370351 -11.071552 -6.968035 14.385978 -15.344307 7.877141 4.601245 -7.009401 5.297378 0.000000 0.000000 0.000000 5.764910 -10.800891 -26.418532 34.006766 -44.086025 14.119074 23.661907 -4.473055 11.673577 0.000000 0.000000 0.000000 -7.125000 0.000000 0.000000 -2.484478 17.251098 -1.589468 0.000000 0.000000 0.000000 -60.833468 -8.454338 -31.558036 -108.964731 -58.596160 -76.346501 8.967342 -42.256176 6.206218 0.000000 0.000000 0.000000 7.125000 0.000000 0.000000 28.857251 34.783298 8.128059
-25.585017 17.295289 -1.087917 -181.502987 17.571173 542.348175 0.000000 0.000000 0.000000 -18.787128 22.512984 -19.681059 9.409638 17.058576 57.488246 -0.451315 -11.853048 4.073007 0.384224 -3.979435 -11.018948 0.000000 0.000000 0.000000 32.568106 1.932722 -26.568386 -3.785957 -11.869921 35.273338 -0.705011 -0.842908 -16.205008 -2.726748 -10.197898 29.658296 -1.347282 -4.753454 13.681397 2.771841 -5.895215 4.098091 4.577706 -2.740284 -2.865003 -9.733668 -10.037064 -3.672136 14.587956 -13.737429 4.581190 5.253407 -6.522712 3.665279 0.000000 0.000000 0.000000 5.563585 -12.049022 -26.689364 34.607362 -44.527436 14.538122 21.880027 0.962279 13.836692 0.000000 0.000000 0.000000 -7.125000 0.000000 0.000000 -3.788277 15.131590 -2.664432 0.000000 0.000000 0.000000 -63.590771 -9.585071 -29.516169 -106.546669 -58.939376 -74.278743 11.388679 -45.208073 7.227597 0.000000 0.000000 0.000000 7.125000 0.000000 0.000000 30.986202 35.491832 8.273533
